<svg width="26" height="34" viewBox="0 0 26 34" fill="none" xmlns="http://www.w3.org/2000/svg">
<path d="M13.0427 2.83401C16.2443 2.84821 19.3043 4.12321 21.5427 6.36154C23.7952 8.61404 25.056 11.6599 25.0419 14.819V14.8899C24.9568 19.1824 22.5485 23.1349 19.5452 26.2232C17.8452 27.9657 15.961 29.5099 13.9068 30.8132C13.3543 31.2807 12.5468 31.2807 11.9943 30.8132C8.9485 28.8299 6.25683 26.3365 4.07516 23.4324C2.16266 20.9107 1.07183 17.879 0.958496 14.7199C0.986829 8.13237 6.3985 2.81987 13.0427 2.83401ZM13.0427 11.2349C10.9318 11.2349 9.23183 12.9207 9.23183 15.0174C9.23183 17.0871 10.9035 18.7574 13.0002 18.7857H13.0427C14.0485 18.7857 15.0118 18.4032 15.7202 17.709C16.4568 16.9865 16.8691 16.0246 16.8691 15.0174C16.8691 12.9207 15.1535 11.2349 13.0427 11.2349Z" fill="#262626"/>
</svg>
