<svg width="319" height="54" viewBox="0 0 319 54" fill="none" xmlns="http://www.w3.org/2000/svg">
<path d="M55.8544 28.086H38.2735C38.2735 30.034 38.8119 31.6041 39.8925 32.8044C40.9691 34.0048 42.4804 34.6029 44.4223 34.6029C45.8618 34.6029 47.0381 34.3869 47.9552 33.9549C48.8723 33.5271 49.8174 32.821 50.7863 31.8491L55.045 36.1729C53.5337 37.7845 51.9786 38.9516 50.3796 39.6827C48.7806 40.4137 46.7749 40.7792 44.3664 40.7792C42.5681 40.7792 40.9412 40.5466 39.4857 40.0772C38.0303 39.6079 36.6746 38.8312 35.4145 37.7471C34.1545 36.663 33.1695 35.1055 32.4478 33.0869C31.7261 31.0641 31.3672 28.6301 31.3672 25.785C31.3672 21.1039 32.4797 17.4447 34.7087 14.803C36.9377 12.1614 39.9044 10.8447 43.6048 10.8447C47.3052 10.8447 50.4514 12.1448 52.6086 14.749C54.7658 17.3533 55.8425 20.7675 55.8425 24.9999V28.0902L55.8544 28.086ZM48.9521 23.0852C48.9162 21.8142 48.7008 20.7633 48.3061 19.9409C47.4448 17.9182 45.8777 16.9089 43.6168 16.9089C41.3559 16.9089 39.7888 17.9182 38.9275 19.9409C38.5327 20.7633 38.3174 21.8142 38.2815 23.0852H48.96H48.9521Z" fill="#9AC5CD"/>
<path d="M71.5453 40.4428H67.5538C64.8582 40.4428 62.8166 39.6204 61.433 37.9714C60.0493 36.3225 59.3555 34.3579 59.3555 32.0734V0.452637H66.3655V31.6249C66.3655 33.386 67.1909 34.2623 68.8457 34.2623H71.5413V40.4428H71.5453Z" fill="#9AC5CD"/>
<path d="M87.07 40.4428H83.242C80.5823 40.4428 78.5607 39.6204 77.177 37.9714C75.7933 36.3225 75.0995 34.3579 75.0995 32.0734V17.5818H72.1328V12.0202H75.0995V3.37256H82.1095V12.0244H87.07V17.5859H82.1095V31.629C82.1095 33.3901 82.919 34.2665 84.5339 34.2665H87.07V40.4469V40.4428Z" fill="#9AC5CD"/>
<path d="M111.716 40.4428H104.869V37.9174C103.9 38.9267 102.899 39.6494 101.875 40.0814C100.85 40.5092 99.5459 40.7252 97.9668 40.7252C94.8406 40.7252 92.4481 39.8654 90.7973 38.1417C89.2501 36.4554 88.4766 34.2665 88.4766 31.5708C88.4766 29.0995 89.302 27.0684 90.9568 25.4776C92.6116 23.8868 95.02 23.0893 98.1821 23.0893H104.706V21.6273C104.706 20.0157 104.291 18.8486 103.466 18.1176C102.64 17.3865 101.308 17.021 99.4741 17.021C97.281 17.021 95.4826 17.8642 94.083 19.5464L89.6609 14.9983C91.0246 13.4241 92.4561 12.34 93.9474 11.7419C95.4387 11.1438 97.3727 10.8447 99.7452 10.8447C107.724 10.8447 111.716 14.2922 111.716 21.1787V40.4428ZM104.706 29.6602V28.086H99.3664C96.5991 28.086 95.2154 29.2075 95.2154 31.4545C95.2154 33.7016 96.635 34.769 99.4741 34.769C101.308 34.769 102.692 34.2997 103.625 33.3651C104.343 32.7297 104.702 31.4919 104.702 29.656L104.706 29.6602Z" fill="#9AC5CD"/>
<path d="M149.237 40.4428H141.74V7.4181H132.573V19.0438C132.573 24.5472 132.114 28.8835 131.197 32.0485C130.28 35.2135 128.988 37.4024 127.313 38.6194C125.643 39.8364 123.422 40.4469 120.654 40.4469H117.688V33.4815H118.764C119.805 33.4815 120.698 33.2863 121.432 32.8917C122.169 32.4971 122.851 31.7868 123.481 30.7568C124.111 29.7267 124.578 28.2023 124.885 26.1796C125.192 24.1568 125.343 21.6315 125.343 18.5952V0.452637H149.233V40.4428H149.237Z" fill="#9AC5CD"/>
<path d="M178.946 40.4428H171.884V22.5826L162.015 40.4428H154.953V11.1812H162.015V28.5927L171.884 11.1812H178.946V40.4428Z" fill="#9AC5CD"/>
<path d="M204.071 31.7951C204.071 34.4534 203.018 36.6174 200.917 38.2829C198.815 39.9485 196.287 40.7833 193.34 40.7833C188.093 40.7833 183.994 39.4002 181.047 36.6257L185.09 32.0776C186.924 33.7639 189.277 34.607 192.152 34.607C193.516 34.607 194.688 34.3163 195.657 33.7348C196.626 33.1533 197.113 32.3392 197.113 31.2925C197.113 29.195 195.765 28.1483 193.069 28.1483H188.811V22.9232H192.962C194.11 22.9232 195.039 22.6324 195.737 22.0509C196.439 21.4694 196.79 20.6927 196.79 19.7208C196.79 17.7354 195.191 16.7427 191.993 16.7427C189.764 16.7427 187.734 17.4156 185.9 18.7655L182.016 14.2714C184.819 11.9869 188.595 10.8447 193.34 10.8447C196.215 10.8447 198.652 11.5467 200.645 12.9506C202.639 14.3545 203.64 16.2942 203.64 18.7655C203.64 20.1154 203.289 21.3573 202.587 22.4995C201.886 23.6417 200.96 24.514 199.812 25.1121C201.108 25.6728 202.141 26.5451 202.914 27.7247C203.688 28.9043 204.075 30.2625 204.075 31.7951H204.071Z" fill="#9AC5CD"/>
<path d="M232.055 40.4428H224.993V22.5826L215.124 40.4428H208.062V11.1812H215.124V28.5927L224.993 11.1812H232.055V40.4428Z" fill="#9AC5CD"/>
<path d="M260.26 40.4428H253.198V28.7049H244.195V40.4428H237.133V11.1812H244.195V22.2461H253.198V11.1812H260.26V40.4428Z" fill="#9AC5CD"/>
<path d="M284.149 17.6399H272.557V40.4428H265.547V11.1812H284.149V17.6399Z" fill="#9AC5CD"/>
<path d="M25.4717 5.83986C22.7762 1.948 18.9123 0 13.8761 0H7.51204V6.96131H0.0195312V39.9902H13.8761C18.9083 39.9902 22.7722 38.0422 25.4678 34.1503C26.5444 32.5761 27.2183 30.8067 27.4894 28.8421C27.7606 26.8775 27.8922 23.9285 27.8922 19.9951C27.8922 16.0617 27.7566 13.1127 27.4894 11.1481C27.2223 9.18345 26.5444 7.41405 25.4678 5.83986H25.4717ZM20.1325 27.1848C19.953 28.6095 19.5224 29.7309 18.8365 30.5533C17.5765 32.2023 15.7103 33.0247 13.2301 33.0247H7.51603V6.96547H13.2301C15.7103 6.96547 17.5805 7.78786 18.8365 9.43681C19.5184 10.2592 19.9491 11.3848 20.1325 12.8053C20.3119 14.23 20.4036 16.6266 20.4036 19.9951C20.4036 23.3636 20.3119 25.7602 20.1325 27.1848Z" fill="#9AC5CD"/>
<path d="M112.268 47.0096H0V54H112.268V47.0096Z" fill="#9AC5CD"/>
</svg>
