<svg width="358" height="74" viewBox="0 0 358 74" fill="none" xmlns="http://www.w3.org/2000/svg">
<path d="M357.388 9.20021L356.189 13.5465C356.114 13.8088 355.926 13.9586 355.664 13.9586H345.398V34.7159C345.398 35.0157 345.211 35.203 344.911 35.203H339.815C339.515 35.203 339.328 35.0157 339.328 34.7159V9.12527C339.328 8.82552 339.515 8.63818 339.815 8.63818H356.976C357.313 8.63818 357.463 8.86299 357.388 9.20021Z" fill="#9AC5CD"/>
<path d="M333.935 35.203H328.877C328.577 35.203 328.39 35.0157 328.39 34.7159V24.1874H318.648V34.7159C318.648 35.0157 318.461 35.203 318.161 35.203H313.065C312.765 35.203 312.578 35.0157 312.578 34.7159V9.12527C312.578 8.82552 312.765 8.63818 313.065 8.63818H318.161C318.461 8.63818 318.648 8.82552 318.648 9.12527V18.9044H328.39V9.12527C328.39 8.82552 328.577 8.63818 328.877 8.63818H333.935C334.235 8.63818 334.422 8.82552 334.422 9.12527V34.7159C334.422 35.0157 334.235 35.203 333.935 35.203Z" fill="#9AC5CD"/>
<path d="M307.692 9.12527V34.7159C307.692 35.0157 307.505 35.203 307.205 35.203H302.147C301.847 35.203 301.66 35.0157 301.66 34.7159V24.1499C301.66 21.4522 301.698 19.7287 302.072 17.4057C302.147 16.8811 301.735 16.6563 301.473 17.2558C300.986 18.1551 300.574 19.0168 300.124 19.991L294.766 30.8567C294.167 32.0932 293.455 33.5169 292.855 34.8283C292.743 35.0906 292.593 35.203 292.293 35.203H285.624C285.324 35.203 285.137 35.0157 285.137 34.7159V9.12527C285.137 8.82552 285.324 8.63818 285.624 8.63818H290.719C291.019 8.63818 291.207 8.82552 291.207 9.12527V19.6163C291.207 22.314 291.132 24.075 290.794 26.4355C290.757 26.9226 291.132 27.1474 291.431 26.5854C291.881 25.6112 292.293 24.7494 292.78 23.7753L298.101 12.9845C298.7 11.748 299.412 10.3242 299.974 9.01286C300.086 8.75059 300.236 8.63818 300.536 8.63818H307.205C307.505 8.63818 307.692 8.82552 307.692 9.12527Z" fill="#9AC5CD"/>
<path d="M261.248 10.062L263.646 9.23771C265.969 8.48835 267.88 8.22607 270.128 8.22607C276.197 8.22607 279.869 11.0362 279.869 15.6073C279.869 18.0052 278.97 19.8037 276.497 21.1151C276.085 21.3399 276.085 21.6396 276.497 21.7895C279.12 22.7637 280.844 24.5621 280.844 27.6345C280.844 32.1681 276.834 35.6152 270.09 35.6152C267.767 35.6152 265.819 35.2405 263.608 34.5661L260.948 33.7043C260.648 33.5919 260.536 33.4046 260.648 33.1048L262.222 28.9834C262.297 28.6836 262.522 28.5712 262.821 28.6836L265.369 29.5079C267.093 30.0699 268.554 30.2198 269.978 30.2198C272.975 30.2198 274.849 29.1707 274.849 27.1849C274.849 25.0492 273.312 24.1875 270.352 24.1875H266.943C266.643 24.1875 266.456 24.0001 266.456 23.7004V19.3915C266.456 19.0918 266.643 18.9045 266.943 18.9045H270.352C272.638 18.9045 273.874 17.8928 273.874 16.3192C273.874 14.6706 272.526 13.6589 269.903 13.6589C268.479 13.6589 266.98 13.8088 265.332 14.3708L263.121 15.1202C262.821 15.2326 262.597 15.1202 262.484 14.8204L260.948 10.6615C260.836 10.3618 260.911 10.1744 261.248 10.062Z" fill="#9AC5CD"/>
<path d="M256.138 9.12527V34.7159C256.138 35.0157 255.95 35.203 255.651 35.203H250.593C250.293 35.203 250.105 35.0157 250.105 34.7159V24.1499C250.105 21.4522 250.143 19.7287 250.518 17.4057C250.593 16.8811 250.18 16.6563 249.918 17.2558C249.431 18.1551 249.019 19.0168 248.569 19.991L243.211 30.8567C242.612 32.0932 241.9 33.5169 241.3 34.8283C241.188 35.0906 241.038 35.203 240.738 35.203H234.069C233.769 35.203 233.582 35.0157 233.582 34.7159V9.12527C233.582 8.82552 233.769 8.63818 234.069 8.63818H239.165C239.465 8.63818 239.652 8.82552 239.652 9.12527V19.6163C239.652 22.314 239.577 24.075 239.24 26.4355C239.202 26.9226 239.577 27.1474 239.877 26.5854C240.326 25.6112 240.738 24.7494 241.226 23.7753L246.546 12.9845C247.145 11.748 247.857 10.3242 248.419 9.01286C248.532 8.75059 248.682 8.63818 248.981 8.63818H255.651C255.95 8.63818 256.138 8.82552 256.138 9.12527Z" fill="#9AC5CD"/>
<path d="M228.686 9.12527V34.7159C228.686 35.0157 228.499 35.203 228.199 35.203H223.141C222.841 35.203 222.654 35.0157 222.654 34.7159V13.9586H215.685V21.9019C215.685 28.796 213.399 32.9924 208.378 35.3529L207.105 35.9524C206.805 36.1022 206.58 36.0273 206.468 35.7276L204.632 31.6436C204.519 31.3438 204.594 31.119 204.894 31.0066L206.205 30.3696C208.566 29.2831 209.652 26.6228 209.652 21.9019V9.12527C209.652 8.82552 209.84 8.63818 210.139 8.63818H228.199C228.499 8.63818 228.686 8.82552 228.686 9.12527Z" fill="#9AC5CD"/>
<path d="M184.526 8.63818H194.643C200.637 8.63818 204.122 11.9354 204.122 17.4806C204.122 23.3256 200.15 26.7352 193.331 26.7352H190.109V34.7159C190.109 35.0157 189.922 35.203 189.622 35.203H184.526C184.226 35.203 184.039 35.0157 184.039 34.7159V9.12527C184.039 8.82552 184.226 8.63818 184.526 8.63818ZM190.109 21.4522H193.331C196.291 21.4522 198.015 19.991 198.015 17.4806C198.015 15.27 196.778 13.9586 194.643 13.9586H190.109V21.4522Z" fill="#9AC5CD"/>
<path d="M167.132 18.9044H176.312C176.612 18.9044 176.799 19.0918 176.799 19.3915V23.7003C176.799 24.0001 176.612 24.1874 176.312 24.1874H167.132V29.92H179.384C179.684 29.92 179.871 30.1074 179.871 30.4071V34.7159C179.871 35.0157 179.684 35.203 179.384 35.203H161.55C161.25 35.203 161.062 35.0157 161.062 34.7159V9.12527C161.062 8.82552 161.25 8.63818 161.55 8.63818H179.572C179.909 8.63818 180.059 8.86299 179.984 9.20021L178.785 13.5465C178.71 13.8088 178.523 13.9586 178.26 13.9586H167.132V18.9044Z" fill="#9AC5CD"/>
<path d="M149.434 13.9586V34.7159C149.434 35.0157 149.247 35.203 148.947 35.203H143.889C143.589 35.203 143.402 35.0157 143.402 34.7159V13.9586H135.983C135.683 13.9586 135.496 13.7713 135.496 13.4716V9.12527C135.496 8.82552 135.683 8.63818 135.983 8.63818H156.815C157.115 8.63818 157.302 8.82552 157.302 9.12527V13.4716C157.302 13.7713 157.115 13.9586 156.815 13.9586H149.434Z" fill="#9AC5CD"/>
<path d="M131.232 35.203H126.174C125.874 35.203 125.687 35.0157 125.687 34.7159V24.1874H115.945V34.7159C115.945 35.0157 115.757 35.203 115.458 35.203H110.362C110.062 35.203 109.875 35.0157 109.875 34.7159V9.12527C109.875 8.82552 110.062 8.63818 110.362 8.63818H115.458C115.757 8.63818 115.945 8.82552 115.945 9.12527V18.9044H125.687V9.12527C125.687 8.82552 125.874 8.63818 126.174 8.63818H131.232C131.532 8.63818 131.719 8.82552 131.719 9.12527V34.7159C131.719 35.0157 131.532 35.203 131.232 35.203Z" fill="#9AC5CD"/>
<path d="M104.985 9.12527V34.7159C104.985 35.0157 104.798 35.203 104.498 35.203H99.4402C99.1404 35.203 98.9531 35.0157 98.9531 34.7159V24.1499C98.9531 21.4522 98.9906 19.7287 99.3652 17.4057C99.4402 16.8811 99.028 16.6563 98.7657 17.2558C98.2787 18.1551 97.8665 19.0168 97.4169 19.991L92.059 30.8567C91.4595 32.0932 90.7476 33.5169 90.1481 34.8283C90.0357 35.0906 89.8858 35.203 89.5861 35.203H82.9168C82.617 35.203 82.4297 35.0157 82.4297 34.7159V9.12527C82.4297 8.82552 82.617 8.63818 82.9168 8.63818H88.0124C88.3122 8.63818 88.4995 8.82552 88.4995 9.12527V19.6163C88.4995 22.314 88.4246 24.075 88.0874 26.4355C88.0499 26.9226 88.4246 27.1474 88.7243 26.5854C89.1739 25.6112 89.5861 24.7494 90.0732 23.7753L95.3936 12.9845C95.9931 11.748 96.705 10.3242 97.267 9.01286C97.3794 8.75059 97.5293 8.63818 97.829 8.63818H104.498C104.798 8.63818 104.985 8.82552 104.985 9.12527Z" fill="#9AC5CD"/>
<g clip-path="url(#clip0_6_846)">
<path d="M26.555 64.584C32.5505 61.4299 47.9674 50.2473 56.5323 35.9106C61.5286 28.3121 57.8028 22.8642 49.5376 21.5739C43.88 20.4987 38.0741 20.4744 32.4077 21.5022C26.6977 22.4914 25.984 23.5093 24.842 25.2297C23.4145 27.2369 22.8435 28.8139 27.697 29.1006C32.5505 29.3874 39.4024 29.1867 43.3994 30.5343C46.5399 31.7529 46.5399 34.9787 44.6128 38.993C40.6158 46.8782 28.9104 56.197 24.6279 59.0644C22.9149 60.4981 22.7721 60.9282 23.2004 62.3618C23.9855 65.3725 24.5422 65.5159 26.4836 64.369L26.555 64.584Z" fill="#9AC5CD"/>
<path d="M33.0904 0.513408C27.095 3.81085 11.6781 14.8501 3.1131 29.1869C-1.88312 36.7853 1.85691 42.2333 10.1078 43.5236C15.7654 44.5987 21.5714 44.623 27.2377 43.5953C32.9477 42.606 33.6614 41.5881 34.8034 39.8677C36.2309 37.8606 36.8019 36.2835 31.9484 35.9968C27.095 35.7101 20.243 35.9108 16.246 34.5631C13.1055 33.3445 13.1055 30.1187 15.0184 26.1045C18.8726 18.0759 30.7208 8.90039 35.0033 6.03305C36.5735 4.59937 36.859 4.16927 36.4308 2.7356C35.7598 -0.275111 35.2031 -0.418479 33.1475 0.728459L33.0904 0.513408Z" fill="#416C7A"/>
</g>
<defs>
<clipPath id="clip0_6_846">
<rect width="57.0997" height="64.5152" fill="white" transform="translate(0.859375 0.0688477)"/>
</clipPath>
</defs>
</svg>
