<svg width="255" height="47" viewBox="0 0 255 47" fill="none" xmlns="http://www.w3.org/2000/svg">
<g clip-path="url(#clip0_6_875)">
<mask id="mask0_6_875" style="mask-type:luminance" maskUnits="userSpaceOnUse" x="0" y="0" width="255" height="47">
<path d="M255 0H0V47H255V0Z" fill="white"/>
</mask>
<g mask="url(#mask0_6_875)">
<path d="M11.871 25.4699C8.20595 25.4699 5.32366 24.6924 3.2241 23.1378C-0.965821 20.0374 -0.459346 13.2885 1.28568 9.01982C3.75359 2.90893 9.67472 0.0916271 16.1529 0.0916271C20.785 0.0916271 27.4934 1.19698 27.4934 7.02481C27.4934 14.6095 19.2056 15.5621 13.22 15.5621C11.6743 15.5683 10.1295 15.4903 8.5927 15.3284C7.98494 19.0129 10.4068 19.4893 13.6252 19.5342C15.9957 19.4953 18.3476 19.1168 20.6053 18.4109C21.2316 18.2446 21.6229 18.1458 21.9866 18.7343L23.7823 22.3874C24.0539 22.8367 23.8421 23.1962 23.1469 23.4973C19.7305 24.9756 15.5084 25.4834 11.8664 25.4834L11.871 25.4699ZM43.6361 5.24095C41.2879 5.24095 39.4921 6.22948 39.064 8.57049L36.923 19.8487C38.3779 20.0734 39.8473 20.1965 41.3201 20.2172C43.6866 20.2172 47.6233 19.5835 47.6233 16.5191C47.6233 14.0478 43.9906 14.2096 42.2455 14.2096C41.5135 14.2096 40.9332 14.1377 41.0898 13.284L41.495 11.0643C41.6745 10.0892 42.4711 10.0263 43.3368 9.95443C44.8101 9.83761 47.2689 9.29842 47.2689 7.41122C47.278 5.66332 44.9667 5.22299 43.6361 5.22299V5.24095ZM30.744 8.52107C31.8812 2.00129 38.1661 -0.0117188 44.1518 -0.0117188C48.0009 -0.0117188 55.133 0.931876 55.3172 5.99583C55.4046 8.4357 53.5721 10.4487 51.3252 11.2665V11.4956C53.9174 12.2146 56.0677 13.7423 56.0677 16.5776C56.0677 23.6501 46.6979 25.4518 41.1405 25.4518C37.2085 25.4518 32.7744 25.1419 29.1094 23.6545C28.4004 23.3669 28.1886 22.9985 28.2991 22.2706L30.744 8.52107ZM63.9502 33.6028C63.8167 34.3665 63.3194 34.389 62.6196 34.389H56.7859C56.1459 34.389 55.6119 34.3665 55.7453 33.6028L61.068 3.4661C61.1394 3.12569 61.3063 2.81136 61.5502 2.55824C61.7942 2.30511 62.1054 2.12316 62.4493 2.03273C66.3031 0.617343 70.6771 0.181493 74.7702 0.181493C81.8655 0.181493 87.3907 2.76514 87.2019 10.4442C86.9718 19.7588 81.0644 25.3754 71.7131 25.3754C69.6368 25.3894 67.564 25.2042 65.5249 24.8227L63.9502 33.6028ZM73.0989 5.96438C71.6375 5.96074 70.1808 6.13125 68.7616 6.47212L66.5609 19.0893C68.0381 19.4374 69.5533 19.6079 71.0731 19.5971C76.322 19.5971 78.8267 15.616 78.8267 10.8621C78.8267 7.28541 76.5153 5.96438 73.0989 5.96438ZM105.034 5.78016C101.494 5.78016 99.2422 8.19305 98.3812 11.3743C97.3498 15.1892 97.5432 19.7858 102.663 19.7858C107.783 19.7858 109.722 14.6724 109.722 10.4038C109.722 7.42021 108.11 5.78016 105.034 5.78016ZM105.785 0.0961213C112.581 0.0961213 118.216 2.90443 118.216 10.2195C118.216 20.2036 111.31 25.5687 101.729 25.4699C95.2089 25.4024 89.3476 23.1063 89.3476 15.9036C89.3079 13.6018 89.7206 11.3139 90.5631 9.16362C93.1368 2.90893 99.2652 0.0916271 105.789 0.0916271L105.785 0.0961213ZM134.258 5.64086C133 5.61741 131.742 5.69405 130.496 5.87002L127.273 24.1264C127.135 24.9126 126.688 24.9576 125.942 24.9576H120.201C119.561 24.9576 118.962 24.8947 119.101 24.1264L122.632 4.29735C123.037 2.01925 124.451 0.918395 126.739 0.554437C129.423 0.198422 132.13 0.0481856 134.838 0.105106C139.829 0.105106 146.809 0.716198 148.144 6.50807C148.486 8.35225 148.466 10.243 148.085 12.0798L146.004 24.1443C145.865 24.9351 145.419 24.9756 144.673 24.9756H138.885C138.241 24.9756 137.651 24.9126 137.785 24.1443L139.986 11.6709C140.239 10.2465 140.414 8.3683 139.41 7.17757C138.245 5.7487 135.934 5.64086 134.258 5.64086ZM198.005 5.78016C194.56 5.78016 192.153 7.90548 191.033 10.9789C189.233 15.9215 190.062 19.9296 196.214 19.8307C197.562 19.7987 198.901 19.6134 200.206 19.278C200.892 14.8971 201.615 10.4846 202.577 6.1531C201.391 5.9556 200.192 5.83998 198.99 5.80711C198.603 5.78464 198.272 5.78016 198.005 5.78016ZM198.395 0.141054C202.325 0.152337 206.242 0.571066 210.082 1.39019C211.053 1.59688 211.357 1.93389 211.183 2.86849C209.911 9.55454 208.719 16.2811 207.771 23.021C207.744 23.2416 207.645 23.4483 207.49 23.6101C207.334 23.772 207.128 23.8805 206.904 23.9196C202.911 24.9984 198.783 25.5277 194.639 25.4923C187.732 25.4923 181.858 23.3894 181.858 16.0563C181.825 13.8018 182.189 11.5584 182.934 9.42423C185.329 2.82805 191.622 0.141054 198.395 0.141054ZM177.215 23.4209L177.101 24.0858V24.1218C176.953 24.8857 176.529 24.9621 175.779 24.9621H170.056C169.209 24.9621 168.905 24.661 169.015 24.0365L172.151 6.14861H165.314C164.535 9.37929 163.818 12.6369 162.828 15.8092C160.986 21.6819 157.445 24.4679 151.432 25.8832C150.834 26.0225 150.051 26.0494 149.756 25.3305L148.421 22.0055C148.08 21.1517 148.49 20.8148 149.286 20.5272C152.804 19.2556 154.383 17.7997 155.678 14.0344C156.732 10.9699 157.321 7.04277 158.251 3.42566C158.799 1.30033 160.093 0.698224 162.243 0.698224H177.897C180.029 0.698224 181.121 1.31381 180.733 3.50653V3.56047L177.215 23.4209ZM219.745 24.0365C219.599 24.8947 219.189 24.9621 218.364 24.9621H212.707C211.858 24.9621 211.5 24.6565 211.606 24.0365L215.598 1.56993C215.704 0.981302 216.154 0.671264 216.928 0.671264H222.596C223.375 0.671264 223.839 0.671264 223.697 1.56993L222.365 9.47365H232.78L234.162 1.56993C234.264 0.981302 234.742 0.671264 235.543 0.671264H241.216C241.985 0.671264 242.469 0.671264 242.316 1.56993L238.324 24.0365C238.172 24.8901 237.841 24.9621 236.994 24.9621H231.335C230.488 24.9621 230.129 24.6565 230.234 24.0365L231.855 14.7489H221.386L219.745 24.0365ZM15.6879 5.68579C12.4649 5.68579 10.0477 7.54602 9.38004 10.6284C11.4404 10.794 13.5121 10.7714 15.5682 10.561C17.2534 10.3723 19.3851 9.94545 19.3851 7.90548C19.3898 5.99583 17.1798 5.68579 15.6879 5.68579Z" fill="#9AC5CD"/>
<path d="M241.283 33.1249C183.84 22.4308 129.298 28.6315 71.0672 46.1824C69.4327 46.6768 69.2254 47.2923 71.3342 46.852C125.043 35.5648 183.361 31.8173 241.076 34.2707C242.241 34.3202 243.926 34.356 243.921 34.073C243.917 33.7899 243.392 33.5068 241.283 33.1159" fill="#416C7A"/>
<path d="M250.885 1.24437C251.605 1.24437 252.311 1.45309 252.91 1.84413C253.51 2.23515 253.978 2.79096 254.254 3.44122C254.53 4.09149 254.601 4.80702 254.461 5.49733C254.321 6.18766 253.973 6.82177 253.463 7.31945C252.953 7.81715 252.303 8.15608 251.596 8.29339C250.888 8.43071 250.156 8.36024 249.489 8.09088C248.823 7.82153 248.253 7.36541 247.852 6.78019C247.452 6.19496 247.238 5.50693 247.238 4.80307C247.239 3.85962 247.624 2.95513 248.307 2.28801C248.991 1.62088 249.917 1.24556 250.885 1.24437ZM250.885 0.795044C250.072 0.795044 249.278 1.03011 248.602 1.47052C247.928 1.91093 247.402 2.53689 247.09 3.26927C246.78 4.00163 246.698 4.80752 246.856 5.585C247.015 6.36249 247.406 7.07665 247.98 7.63717C248.554 8.19771 249.287 8.57945 250.083 8.73409C250.881 8.88874 251.705 8.80937 252.457 8.50601C253.207 8.20265 253.848 7.68893 254.3 7.02981C254.75 6.3707 254.992 5.59579 254.992 4.80307C254.99 3.74086 254.557 2.72256 253.787 1.97188C253.018 1.22119 251.972 0.799537 250.885 0.799538V0.795044Z" fill="#9AC5CD"/>
<path d="M251.582 4.92923C251.736 4.97075 251.872 5.05892 251.97 5.18085C252.055 5.30316 252.119 5.43825 252.158 5.58075L252.537 6.92874C252.544 6.94895 252.544 6.97145 252.537 6.99165C252.537 6.99165 252.504 7.02311 252.467 7.02311H252.113H252.052C252.052 7.02311 252.016 6.99614 252.007 6.9647L251.661 5.74701C251.63 5.63346 251.581 5.52567 251.514 5.42799C251.46 5.35101 251.392 5.28531 251.311 5.23477C251.232 5.18658 251.145 5.15307 251.053 5.13591C250.953 5.11669 250.852 5.10765 250.75 5.10896H249.741V6.95121C249.747 6.96186 249.748 6.97333 249.748 6.98491C249.748 6.99649 249.747 7.00797 249.741 7.01861C249.718 7.02581 249.695 7.02581 249.672 7.01861H249.346C249.323 7.02552 249.299 7.02552 249.277 7.01861C249.271 7.00797 249.27 6.99649 249.27 6.98491C249.27 6.97333 249.271 6.96186 249.277 6.95121V2.90723C249.271 2.82871 249.293 2.75069 249.341 2.68706C249.372 2.65847 249.41 2.63683 249.45 2.62364C249.49 2.61045 249.533 2.60603 249.575 2.61067H251.035C251.223 2.60758 251.411 2.63804 251.588 2.70055C251.743 2.75701 251.887 2.84418 252.007 2.95667C252.122 3.06584 252.213 3.19747 252.274 3.34308C252.335 3.49758 252.367 3.66234 252.365 3.82837C252.37 4.06513 252.303 4.2978 252.173 4.49787C252.042 4.69548 251.845 4.84304 251.615 4.91575L251.582 4.92923ZM251.827 3.84633C251.827 3.74575 251.812 3.64569 251.781 3.54978C251.751 3.4546 251.699 3.36717 251.629 3.29366C251.547 3.22032 251.45 3.16514 251.344 3.1319C251.214 3.08383 251.077 3.06093 250.938 3.0645H249.751V4.66412H250.902C251.028 4.67508 251.153 4.66079 251.274 4.62214C251.393 4.5835 251.503 4.52133 251.597 4.43946C251.675 4.36084 251.735 4.26776 251.775 4.16583C251.814 4.06391 251.831 3.95524 251.827 3.84633Z" fill="#9AC5CD"/>
</g>
</g>
<defs>
<clipPath id="clip0_6_875">
<rect width="255" height="47" fill="white"/>
</clipPath>
</defs>
</svg>
