<svg width="347" height="71" viewBox="0 0 347 71" fill="none" xmlns="http://www.w3.org/2000/svg">
<g clip-path="url(#clip0_6_903)">
<path fill-rule="evenodd" clip-rule="evenodd" d="M3.0625 70.5735V60.9683H48.6831V70.5735H3.0625ZM19.355 30.0925H32.0353L25.9917 10.8231H25.7539L19.3564 30.0925H19.355ZM34.1659 7.26537L47.6171 47.9194H37.6634L34.6416 38.2566H16.6298L13.3702 47.9208H4.0124L18.1281 7.26677C19.4949 3.32339 21.0911 0.231445 26.2281 0.231445C31.3652 0.231445 32.8649 3.33465 34.1659 7.26537Z" fill="#9AC5CD"/>
</g>
<path d="M347.001 21.5073V25.5167H336.601V44.5079H331.738V21.5073H347.001Z" fill="#9AC5CD"/>
<path d="M308.141 44.5079V21.5073H313.004V30.9973H322.875V21.5073H327.727V44.5079H322.875V35.0067H313.004V44.5079H308.141Z" fill="#9AC5CD"/>
<path d="M284.887 21.5073H289.738V35.9725H289.929L299.869 21.5073H304.125V44.5079H299.262V30.0315H299.094L289.098 44.5079H284.887V21.5073Z" fill="#9AC5CD"/>
<path d="M272.41 44.8224C270.733 44.8224 269.239 44.5341 267.929 43.9576C266.626 43.3736 265.597 42.5725 264.84 41.5542C264.092 40.5285 263.706 39.3455 263.684 38.0053H268.58C268.61 38.5668 268.794 39.061 269.131 39.4878C269.475 39.907 269.932 40.2327 270.501 40.4648C271.07 40.6969 271.71 40.813 272.421 40.813C273.162 40.813 273.817 40.682 274.387 40.4199C274.956 40.1579 275.401 39.7947 275.723 39.3305C276.045 38.8663 276.206 38.331 276.206 37.7245C276.206 37.1106 276.034 36.5678 275.689 36.0961C275.352 35.6169 274.866 35.2425 274.229 34.973C273.6 34.7035 272.852 34.5687 271.983 34.5687H269.838V30.9973H271.983C272.717 30.9973 273.364 30.87 273.926 30.6155C274.495 30.3609 274.937 30.009 275.251 29.5598C275.566 29.1031 275.723 28.5715 275.723 27.965C275.723 27.3885 275.584 26.8831 275.307 26.4489C275.038 26.0071 274.656 25.6627 274.162 25.4156C273.675 25.1686 273.106 25.045 272.455 25.045C271.796 25.045 271.193 25.1648 270.647 25.4044C270.1 25.6365 269.662 25.9697 269.333 26.4039C269.003 26.8382 268.827 27.3473 268.805 27.9313H264.144C264.167 26.6061 264.545 25.4381 265.278 24.4273C266.012 23.4166 267 22.6267 268.243 22.0576C269.494 21.4811 270.905 21.1929 272.477 21.1929C274.065 21.1929 275.453 21.4811 276.644 22.0576C277.834 22.6341 278.759 23.4128 279.418 24.3936C280.084 25.367 280.414 26.4601 280.406 27.673C280.414 28.9608 280.013 30.0352 279.204 30.8962C278.403 31.7573 277.359 32.3038 276.071 32.5359V32.7156C277.763 32.9327 279.051 33.5205 279.934 34.4788C280.825 35.4297 281.267 36.6202 281.26 38.0502C281.267 39.3605 280.889 40.5247 280.125 41.543C279.369 42.5612 278.325 43.3624 276.992 43.9464C275.659 44.5304 274.132 44.8224 272.41 44.8224Z" fill="#9AC5CD"/>
<path d="M240.781 21.5073H245.633V35.9725H245.824L255.763 21.5073H260.02V44.5079H255.157V30.0315H254.988L244.993 44.5079H240.781V21.5073Z" fill="#9AC5CD"/>
<path d="M216.438 44.5079V40.5996L217.089 40.5434C217.927 40.4761 218.605 40.1579 219.122 39.5888C219.638 39.0123 220.024 38.0951 220.278 36.8373C220.54 35.572 220.709 33.8724 220.784 31.7385L221.166 21.5073H236.776V44.5079H232.048V25.4044H225.68L225.321 33.4119C225.201 35.9875 224.894 38.0914 224.4 39.7236C223.913 41.3558 223.135 42.5612 222.064 43.3399C221.001 44.1186 219.545 44.5079 217.695 44.5079H216.438Z" fill="#9AC5CD"/>
<path d="M195.605 41.0038V25.1011H199.626V41.0038H195.605ZM189.664 35.0627V31.0421H205.567V35.0627H189.664Z" fill="#9AC5CD"/>
<path d="M161.856 44.5079H156.645L164.585 21.5073H170.851L178.78 44.5079H173.569L167.808 26.7633H167.628L161.856 44.5079ZM161.53 35.4671H173.839V39.2631H161.53V35.4671Z" fill="#9AC5CD"/>
<path d="M140.982 23.9781H146.125C147.967 23.9781 149.599 24.3674 151.022 25.1461C152.452 25.9248 153.571 27.0216 154.38 28.4367C155.196 29.8443 155.604 31.499 155.604 33.4007C155.604 35.2425 155.196 36.8485 154.38 38.2187C153.571 39.5888 152.452 40.6558 151.022 41.4194C149.599 42.1757 147.967 42.5538 146.125 42.5538H140.982C139.132 42.5538 137.493 42.1794 136.063 41.4307C134.633 40.6745 133.509 39.6113 132.693 38.2411C131.885 36.871 131.48 35.2538 131.48 33.3895C131.48 31.4877 131.889 29.8331 132.705 28.4255C133.528 27.0104 134.655 25.9173 136.085 25.1461C137.515 24.3674 139.147 23.9781 140.982 23.9781ZM140.982 28.0436C139.993 28.0436 139.121 28.242 138.365 28.6389C137.616 29.0282 137.032 29.6197 136.613 30.4133C136.194 31.207 135.984 32.199 135.984 33.3895C135.984 34.5275 136.197 35.4746 136.624 36.2308C137.058 36.987 137.65 37.5523 138.399 37.9267C139.147 38.301 140.008 38.4882 140.982 38.4882H146.159C147.14 38.4882 147.997 38.2973 148.731 37.9155C149.472 37.5336 150.045 36.9646 150.449 36.2084C150.861 35.4522 151.067 34.5163 151.067 33.4007C151.067 32.2102 150.861 31.2182 150.449 30.4245C150.045 29.6309 149.472 29.0357 148.731 28.6389C147.997 28.242 147.14 28.0436 146.159 28.0436H140.982ZM145.856 21.103V45.4513H141.24V21.103H145.856Z" fill="#9AC5CD"/>
<path d="M113.681 30.009H119.162C120.989 30.009 122.561 30.3047 123.879 30.8962C125.204 31.4802 126.226 32.3076 126.945 33.3782C127.664 34.4489 128.019 35.7105 128.012 37.163C128.019 38.608 127.664 39.8846 126.945 40.9927C126.226 42.0933 125.204 42.9543 123.879 43.5757C122.561 44.1972 120.989 44.5079 119.162 44.5079H110.57V21.5073H115.422V40.5996H119.162C120.038 40.5996 120.775 40.4424 121.374 40.1279C121.973 39.806 122.426 39.3829 122.733 38.8588C123.048 38.3272 123.201 37.747 123.194 37.1181C123.201 36.2046 122.857 35.4335 122.16 34.8045C121.472 34.1681 120.472 33.8499 119.162 33.8499H113.681V30.009Z" fill="#9AC5CD"/>
<path d="M86.1328 44.5079V40.5996L86.7842 40.5434C87.6228 40.4761 88.3003 40.1579 88.817 39.5888C89.3336 39.0123 89.7192 38.0951 89.9737 36.8373C90.2358 35.572 90.4042 33.8724 90.4791 31.7385L90.861 21.5073H106.472V44.5079H101.744V25.4044H95.3757L95.0163 33.4119C94.8965 35.9875 94.5896 38.0914 94.0954 39.7236C93.6087 41.3558 92.8301 42.5612 91.7594 43.3399C90.6962 44.1186 89.24 44.5079 87.3907 44.5079H86.1328Z" fill="#9AC5CD"/>
<path d="M67.6876 44.5079H62.4766L70.4167 21.5073H76.6835L84.6124 44.5079H79.4013L73.6399 26.7633H73.4602L67.6876 44.5079ZM67.3619 35.4671H79.6708V39.2631H67.3619V35.4671Z" fill="#9AC5CD"/>
<defs>
<clipPath id="clip0_6_903">
<rect width="50.6013" height="70.3674" fill="white" transform="translate(0.84375 0.231445)"/>
</clipPath>
</defs>
</svg>
