<svg width="256" height="62" viewBox="0 0 256 62" fill="none" xmlns="http://www.w3.org/2000/svg">
<path fill-rule="evenodd" clip-rule="evenodd" d="M55.0031 8.04085L59.6759 19.0218H50.4095L55.0031 8.04085ZM62.1311 24.8678L64.3487 30.0028H73.5359L60.4679 1.16785H49.6967L36.5495 30.0818H45.8159L47.9543 24.9468H62.1311V24.8678ZM167.071 8.04085L171.744 19.0218H162.477L167.071 8.04085ZM174.199 24.8678L176.417 30.0028H185.604L172.536 1.16785H161.765L148.617 30.0818H157.884L160.022 24.9468H174.199V24.8678ZM253.241 18.3898V13.0968H235.817V7.80385H255.3V1.16785H227.421V30.0818H255.933V23.1298H235.817V18.3898H253.241ZM18.1751 0.693848C5.89907 0.693848 0.671875 5.19685 0.671875 15.6248C0.671875 26.1318 5.89907 30.5559 18.1751 30.5559C29.3423 30.5559 34.5695 27.0008 35.5199 18.6268H26.4119C25.4615 22.1028 22.7687 23.6828 17.8583 23.6828C11.2055 23.6828 8.98787 21.6288 8.98787 15.5458C8.98787 9.54185 11.2847 7.40885 17.8583 7.40885C22.5311 7.40885 25.2239 8.90985 26.2535 12.0698H35.4407C34.4111 4.09085 29.2631 0.693848 18.1751 0.693848ZM86.1287 7.88285H94.1279C96.8207 7.88285 99.5927 8.35685 99.5927 11.5958C99.5927 14.8348 96.8207 15.3088 94.1279 15.3088H86.1287V7.88285ZM100.305 30.0818H110.443L101.256 19.4168L102.206 19.1798C106.483 17.9158 108.384 15.3088 108.384 10.6478C108.384 4.24885 103.869 1.16785 94.6031 1.16785H77.4167V30.0818H86.1287V21.2338H93.5735L100.305 30.0818ZM204.849 23.2088H197.88V8.04085H204.849C211.185 8.04085 213.561 10.1738 213.561 15.6248C213.561 20.9968 210.948 23.2088 204.849 23.2088ZM204.533 1.16785H189.405V30.0818H204.533C217.046 30.0818 222.432 25.7368 222.432 15.6248C222.432 5.51285 217.125 1.16785 204.533 1.16785ZM130.718 0.693848C118.442 0.693848 113.215 5.19685 113.215 15.6248C113.215 26.1318 118.442 30.5559 130.718 30.5559C141.885 30.5559 147.113 27.0008 148.063 18.6268H138.955C138.005 22.1028 135.312 23.6828 130.401 23.6828C123.749 23.6828 121.531 21.6288 121.531 15.5458C121.531 9.54185 123.828 7.40885 130.401 7.40885C135.074 7.40885 137.767 8.90985 138.797 12.0698H147.984C146.954 4.09085 141.806 0.693848 130.718 0.693848Z" fill="#9AC5CD"/>
<path fill-rule="evenodd" clip-rule="evenodd" d="M0.671875 49.3586C0.671875 55.8366 5.89907 61.0506 12.3935 61.0506C18.8087 61.0506 24.1151 55.8366 24.1151 49.3586C24.1151 42.8806 18.8879 37.6666 12.3935 37.6666C5.89907 37.5876 0.671875 42.8806 0.671875 49.3586ZM1.06787 49.3586C1.06787 43.1176 6.13667 38.0616 12.3143 38.0616C18.5711 38.0616 23.5607 43.1176 23.5607 49.3586C23.5607 55.5996 18.4919 60.6556 12.3143 60.6556C6.13667 60.6556 1.06787 55.5206 1.06787 49.3586ZM4.31507 46.1196C7.32467 44.1446 10.5719 43.0386 16.1951 43.9866C16.5119 43.8286 16.6703 43.6706 16.7495 43.2756C15.3239 42.8016 13.8191 42.5646 11.8391 42.6436C10.0967 42.7226 6.92867 43.3546 5.18627 44.3816L5.74067 43.7496C6.92867 43.0386 10.0175 42.0906 12.3143 42.0906C13.9775 42.0906 14.7695 42.1696 16.7495 42.6436C16.5911 42.3276 16.1951 42.1696 15.5615 41.8536C13.6607 40.9846 10.1759 40.9056 7.32467 42.1696C7.72067 41.9326 8.03747 41.6956 8.51267 41.4586C9.46307 41.0636 11.0471 40.5896 12.9479 40.6686C14.5319 40.6686 16.3535 41.2216 17.4623 42.3276C17.6207 42.5646 17.7791 42.8016 17.7791 42.9596C18.6503 43.4336 19.2047 43.8286 19.4423 44.3026C19.5215 44.5396 19.6007 44.8556 19.5215 45.1716C19.9175 45.4086 20.0759 45.5666 20.2343 45.8036C20.3927 46.0406 20.4719 46.1986 20.4719 46.4356C20.4719 46.7516 20.5511 47.0676 20.2343 47.3836C20.5511 47.5416 20.7887 47.9366 20.7887 48.1736C20.9471 48.8846 20.4719 49.5166 19.9175 49.9906C19.2839 50.5436 17.7791 51.2546 16.6703 51.5706C14.2943 52.1236 12.2351 52.4396 10.6511 52.6766C11.3639 52.8346 12.3935 53.0716 14.0567 53.0716C17.5415 53.0716 20.6303 51.4126 20.6303 51.4126C20.6303 51.4126 20.5511 51.6496 20.4719 51.8076C18.2543 53.1506 14.6903 53.7036 13.1855 53.6246C11.6807 53.5456 10.3343 53.3086 9.14627 52.9136C8.75027 52.9926 8.35427 53.1506 8.03747 53.3086C9.93827 54.1776 11.3639 54.4146 13.0271 54.4936C14.6903 54.6516 17.4623 54.1776 19.8383 53.3876C19.7591 53.4666 19.6799 53.7036 19.6007 53.7826C18.4127 54.4146 15.8783 55.0466 14.6111 55.1256C13.3439 55.2046 11.8391 55.1256 10.4927 54.8886C9.30467 54.6516 8.43348 54.2566 7.40387 53.8616C7.24547 54.0196 7.16627 54.1776 7.08707 54.3356C10.9679 56.3106 14.5319 56.3896 18.6503 55.1256L18.2543 55.5206C13.7399 57.3376 10.1759 56.6266 7.48307 55.2836C7.40387 55.2836 7.32467 55.2046 7.24547 55.1256C7.48307 55.5996 9.62147 57.1006 11.9183 57.2586C13.5023 57.4166 15.4823 57.1006 16.6703 56.6266L15.9575 57.0216C15.4031 57.2586 13.8983 57.8906 11.8391 57.8116C9.06707 57.6536 7.48307 56.3896 6.77027 55.7576C6.45347 55.4416 6.29507 55.1256 6.21588 54.6516C5.58227 54.3356 5.18627 54.0196 4.86947 53.4666C4.71107 53.1506 4.71107 52.8346 4.79027 52.5186C4.79027 52.4396 4.79027 52.3606 4.86947 52.2816C4.55267 52.0446 4.23587 51.8076 4.15667 51.5706C3.91907 51.0966 4.07748 50.6226 4.23587 50.3066C4.07748 50.1486 3.91908 49.9116 3.83987 49.7536C3.76067 49.5166 3.76067 49.2796 3.76067 49.0426C3.83987 48.6476 3.99827 48.2526 4.31507 47.9366C4.94867 47.2256 5.89907 46.6726 7.48307 46.1196C9.06707 45.5666 9.70068 45.4876 10.9679 45.2506C12.3935 44.9346 14.0567 44.8556 15.4823 44.3026C11.5223 43.5916 7.48307 44.2236 4.15667 46.5146L4.31507 46.1196ZM17.6999 43.6706C17.6207 43.8286 17.4623 44.0656 17.3039 44.2236C17.6999 44.3026 18.1751 44.4606 18.5711 44.6186C18.5711 44.3026 18.0959 43.9076 17.6999 43.6706ZM5.58227 51.5706C5.34467 51.4126 5.18627 51.3336 4.94867 51.1756C4.86947 51.4126 5.02787 51.7286 5.26547 51.8076C5.34467 51.7286 5.50307 51.6496 5.58227 51.5706ZM18.8879 46.4356C19.2047 46.5936 19.4423 46.6726 19.6799 46.8306C19.8383 46.5146 19.7591 46.2776 19.3631 45.9616C19.2047 46.1196 19.0463 46.2776 18.8879 46.4356ZM18.0167 46.9096C17.4623 47.1466 16.5911 47.4626 15.4031 47.7786C14.4527 48.0156 12.0767 48.3316 9.54227 48.8846C8.75027 49.0426 6.53267 49.5956 5.50307 50.4646C5.81987 50.7016 5.97827 50.7806 6.29507 50.9386C6.77027 50.6226 7.32468 50.3856 8.19588 50.1486C9.77987 49.7536 10.8887 49.5166 12.3143 49.3586C13.7399 49.1216 16.3535 48.5686 17.7791 48.0946C18.2543 47.9366 18.6503 47.6996 19.0463 47.4626C18.9671 47.3046 18.0167 46.9096 18.0167 46.9096ZM7.08707 52.9926C7.32467 52.8346 7.56227 52.7556 7.87907 52.5976C7.48307 52.4396 7.08707 52.2816 6.61188 52.0446C6.45347 52.2026 6.21587 52.2816 6.13667 52.4396C6.37427 52.6766 6.69107 52.8346 7.08707 52.9926ZM5.74067 53.1506C5.74067 53.3876 5.89908 53.6246 6.21588 53.9406C6.29507 53.7826 6.29507 53.7036 6.45347 53.5456C6.21587 53.3876 5.97827 53.2296 5.74067 53.1506ZM7.72067 48.3316C10.5719 47.4626 13.5815 47.2256 16.5911 46.4356C15.4031 46.1196 14.7695 45.9616 13.5023 46.1196C11.6807 46.3566 9.70067 46.7516 7.95827 47.2256C7.32467 47.4626 3.76067 48.4106 4.79027 49.8326C4.79027 49.8326 5.34467 48.9636 7.72067 48.3316ZM18.4127 45.4086C17.9375 45.1716 17.3831 45.0136 16.7495 44.8556C16.5119 45.0926 16.1159 45.2506 15.7199 45.4876C16.5119 45.6456 17.0663 45.8036 17.6999 46.0406C17.7791 45.9616 18.2543 45.4876 18.4127 45.4086ZM19.7591 48.0946C19.6799 48.1736 19.6007 48.2526 19.4423 48.3316C18.8087 48.8056 17.7791 49.2006 16.3535 49.5956C13.4231 50.3856 11.2847 50.4646 8.82946 51.0966C8.35427 51.1756 7.87908 51.3336 7.40387 51.5706C7.87908 51.8076 8.35427 52.0446 8.82946 52.2026C9.77987 51.8866 10.2551 51.8076 11.6807 51.5706C12.2351 51.4916 13.8983 51.1756 15.0863 50.9386C17.4623 50.4646 20.6303 49.4376 19.7591 48.0946Z" fill="#9AC5CD"/>
<path fill-rule="evenodd" clip-rule="evenodd" d="M91.0408 55.1252H93.8128L94.1296 53.1502H96.0304L96.3472 55.1252H99.1192L96.8224 43.5912H93.4168L91.0408 55.1252ZM95.08 47.0672L95.6344 50.6222H94.6048L95.08 47.0672ZM101.654 48.0942C101.812 48.0942 101.97 48.0942 102.129 48.0152C102.287 47.9362 102.446 47.8572 102.525 47.7782C102.604 47.6992 102.762 47.5412 102.842 47.3832C102.921 47.2252 102.921 47.0672 103 46.9092C103 46.7512 103 46.5932 102.921 46.5142C102.842 46.3562 102.762 46.2772 102.683 46.1982C102.604 46.1192 102.446 46.0402 102.287 45.9612C102.129 45.8822 101.97 45.8822 101.812 45.9612C101.337 45.9612 100.782 46.0402 100.307 46.2772V43.8282C101.099 43.5912 101.891 43.5122 102.683 43.5122C104.901 43.5122 105.93 45.0132 105.93 46.4352C105.93 46.9882 105.772 47.5412 105.455 48.0152C105.138 48.4892 104.663 48.8052 104.188 49.0422V49.1212C104.742 49.2792 105.218 49.6742 105.614 50.1482C105.93 50.6222 106.089 51.2542 106.089 51.8072C106.089 53.9402 104.584 55.0462 102.604 55.0462C101.733 55.0462 100.862 54.8882 100.07 54.4932L100.149 52.2022C100.703 52.4392 101.337 52.5972 101.97 52.5182C102.129 52.5182 102.287 52.5182 102.446 52.4392C102.604 52.3602 102.683 52.2812 102.842 52.2022C102.921 52.1232 103.079 51.9652 103.079 51.8072C103.158 51.6492 103.158 51.4912 103.158 51.3332C103.158 50.7012 102.762 50.3062 101.812 50.3062H100.703V47.9362H101.654V48.0942ZM107.277 43.5912H114.722V55.2042H112.029V46.3562H110.049V55.1252H107.356V43.5912H107.277ZM116.226 55.1252H118.919V51.3332H119.87C122.562 51.3332 123.354 48.9632 123.354 47.4622C123.354 45.9612 122.404 43.5912 119.87 43.5912H116.226V55.1252ZM118.919 46.1192H119.553C120.186 46.1192 120.582 46.5142 120.582 47.4622C120.582 48.7262 119.949 48.8052 119.553 48.8052H118.919V46.1192ZM128.344 55.1252C131.591 55.1252 132.621 52.2022 132.621 49.3582C132.621 46.4352 131.512 43.5912 128.344 43.5912C125.097 43.5912 124.067 46.5142 124.067 49.3582C124.067 52.2812 125.176 55.1252 128.344 55.1252ZM128.344 52.4392C127.394 52.4392 126.918 51.3332 126.918 49.3582C126.918 47.3832 127.394 46.2772 128.344 46.2772C129.294 46.2772 129.77 47.3832 129.77 49.3582C129.849 51.3332 129.294 52.4392 128.344 52.4392ZM144.501 55.0462H147.748C148.223 55.0462 148.698 54.9672 149.174 54.8092C149.649 54.6512 150.045 54.3352 150.362 54.0192C150.678 53.7032 150.995 53.2292 151.154 52.7552C151.312 52.2812 151.391 51.8072 151.312 51.3332C151.312 48.4102 149.015 47.8572 147.59 47.8572H147.114V46.3562H150.758V43.5912H144.501V55.0462ZM147.194 52.7552V50.1482H147.59C147.906 50.1482 148.778 50.1482 148.778 51.3332C148.778 52.5182 147.906 52.7552 147.59 52.7552H147.194ZM161.133 43.5912H163.746V47.7782H165.647V43.5912H168.34V55.1252H165.647V50.5432H163.746V55.1252H161.133V43.5912ZM170.162 43.5912H172.854V47.7782H173.409L174.914 43.5912H177.844L175.785 49.0422L178.161 55.1252H175.072L173.567 50.4642H172.934V55.1252H170.241V43.5912H170.162ZM85.7344 43.5912H91.2784V46.4352H88.5064V55.0462H85.7344V43.5912ZM133.967 43.5912H136.264L138.323 46.3562L140.382 43.5912H142.679V55.1252H139.986V48.0942L138.323 50.1482L136.66 48.0942V55.1252H133.967V43.5912ZM151.946 55.1252H154.718L155.034 53.1502H156.935L157.252 55.1252H160.024L157.648 43.5912H154.242L151.946 55.1252ZM155.985 47.0672L156.46 50.6222H155.43L155.985 47.0672Z" fill="#9AC5CD"/>
<path fill-rule="evenodd" clip-rule="evenodd" d="M213.323 43.5914V49.8325L215.779 43.5914H218.234V55.1254H215.779V48.8844L213.323 55.1254H210.868V43.5914H213.323ZM194.474 43.5914V55.1254H196.929L199.384 48.8844V55.1254H201.839V43.5914H199.384L196.929 49.8325V43.5914H194.474ZM186.395 43.5125V49.8325C186.395 51.8865 186.158 52.3604 185.524 52.3604C185.287 52.3604 185.128 52.2815 184.891 52.2815V54.9675C185.207 55.1255 185.603 55.2044 185.999 55.2044C188.93 55.2044 188.93 52.4394 188.93 50.8594V46.2775H189.959V55.0465H192.494V43.5125H186.395ZM204.057 48.0154V50.4644H205.166C206.116 50.4644 206.512 50.8595 206.512 51.4915C206.512 51.6495 206.433 51.8074 206.433 51.9654C206.354 52.1234 206.275 52.2024 206.195 52.3604C206.116 52.4394 205.958 52.5185 205.799 52.5975C205.641 52.6765 205.483 52.6764 205.324 52.6764C204.691 52.6764 204.057 52.5974 203.503 52.3604L203.423 54.6515C204.215 55.0465 205.087 55.2834 205.958 55.2044C207.938 55.2044 209.443 54.0194 209.443 51.9654C209.443 51.4124 209.284 50.7805 208.967 50.3065C208.651 49.8324 208.096 49.4374 207.542 49.2794V49.1214C208.096 48.8844 208.492 48.5685 208.809 48.0945C209.126 47.6205 209.284 47.0675 209.205 46.5145C209.205 45.0925 208.175 43.5914 205.958 43.5914C205.166 43.5914 204.374 43.6705 203.582 43.9075V46.3565C204.057 46.1985 204.532 46.0404 205.087 46.0404C205.245 46.0404 205.403 46.0404 205.562 46.0404C205.72 46.1194 205.799 46.1195 205.958 46.2775C206.037 46.3565 206.195 46.5144 206.195 46.5934C206.275 46.7514 206.275 46.9094 206.275 46.9884C206.275 47.3044 206.116 47.6204 205.879 47.7784C205.641 48.0154 205.324 48.0945 205.007 48.0945H204.057V48.0154ZM229.243 55.0465H232.015V46.3565H234.787V43.5914H229.243V55.0465ZM220.135 55.1254H222.748V50.5435H224.649V55.1254H227.342V43.5914H224.728V47.7784H222.827V43.5914H220.214V55.1254H220.135Z" fill="#9AC5CD"/>
<path fill-rule="evenodd" clip-rule="evenodd" d="M53.8149 43.5913H61.2597V55.2043H58.5669V46.3563H56.5869V55.1253H53.8941V43.5913H53.8149ZM62.9229 55.1253H65.6157V46.3563H67.5957V55.1253H70.2885V43.5913H62.8437V55.1253H62.9229ZM38.0541 55.1253V43.5913H41.6973C44.2317 43.5913 45.1821 45.9613 45.1821 47.4623C45.1821 48.9633 44.3901 51.3333 41.6973 51.3333H40.7469V55.1253H38.0541ZM40.7469 48.7263H41.3805C41.6973 48.7263 42.4101 48.6473 42.4101 47.3833C42.4101 46.4353 42.0141 46.0403 41.3805 46.0403H40.7469V48.7263ZM31.4805 55.0463H34.2525V46.4353H37.0245V43.5913H31.4805V55.0463ZM73.3773 43.5913H76.7829L79.0797 55.1253H76.3077L75.9909 53.1503H74.0901L73.7733 55.1253H71.0805L73.3773 43.5913ZM74.5653 50.6223H75.5949L75.1197 47.0673L74.5653 50.6223ZM47.2413 55.1253C47.6373 55.1253 48.0333 55.0463 48.3501 54.8883C48.6669 54.7303 48.9837 54.4933 49.2213 54.1773C49.4589 53.8613 49.7757 53.3873 50.0133 52.9133C50.2509 52.3603 50.4885 51.8073 50.7261 51.0963L53.1813 43.5913H50.2509L49.3005 47.8573H49.2213L48.1125 43.5913H45.1029L47.7957 51.3333V51.4123C47.7165 51.6493 47.6373 51.8073 47.4789 51.9653C47.3205 52.1233 47.0829 52.2023 46.8453 52.2023C46.6869 52.2023 46.5285 52.2023 46.3701 52.1233C46.2117 52.0443 46.1325 52.0443 46.1325 52.0443V54.8883C46.2117 54.9673 46.3701 54.9673 46.6077 55.0463C46.7661 55.0463 47.0037 55.1253 47.2413 55.1253Z" fill="#9AC5CD"/>
</svg>
