<svg width="301" height="32" viewBox="0 0 301 32" fill="none" xmlns="http://www.w3.org/2000/svg">
<path fill-rule="evenodd" clip-rule="evenodd" d="M148.762 8.0453C147.953 8.0453 146.832 8.51075 146.265 9.07803L137.956 16.1588L129.618 9.07803C129.056 8.51075 127.921 8.0453 127.115 8.0453H122.339L122.348 31.2773H130.333V17.1478L137.967 23.9988L145.479 17.2555L145.487 31.2773H153.476V8.0453H148.762ZM109.889 9.2613C110.322 8.58639 111.344 8.0453 112.156 8.0453H118.713V31.2773H110.73V16.8453L100.482 30.0613C100.049 30.7391 99.0273 31.2773 98.2182 31.2773H91.6584V8.0453H99.6472V22.4773L109.889 9.2613ZM105.2 6.05548C112.761 6.05548 111.55 0.772572 111.55 0.772572C111.507 0.574754 111.303 0.408936 111.096 0.408936H108.663C108.465 0.408936 108.32 0.580572 108.343 0.77839C108.343 0.77839 108.561 2.39875 105.2 2.39875C101.844 2.39875 102.054 0.77839 102.054 0.77839C102.083 0.580572 101.941 0.408936 101.743 0.408936H99.3009C99.0942 0.408936 98.8992 0.574754 98.8585 0.772572C98.8585 0.772572 97.6391 6.05548 105.2 6.05548ZM79.3943 25.3689C78.4718 25.8984 77.5259 26.6868 74.2664 26.6868C71.8479 26.6868 71.4754 25.5726 71.4754 24.2664V23.0213C71.4754 21.9886 72.3281 21.1537 73.3613 21.1537H79.2517C79.6825 21.1537 80.0346 21.4824 80.0346 21.8984V24.3013C80.0346 24.5108 80.0812 24.9762 79.3943 25.3689ZM85.9775 10.1137C84.6591 8.77839 81.4694 8.03948 79.6272 8.03948H66.3911L65.3055 13.1246H78.1487C78.6609 13.1246 79.1382 13.3224 79.4962 13.686C79.8396 14.0409 80.0346 14.5064 80.0346 14.9951V17.0286H69.3305C66.3038 17.0286 63.8504 19.5508 63.8504 22.6489V25.4824C63.8504 29.9711 67.3777 31.5217 70.3345 31.6526C75.6284 31.8795 78.9869 30.5966 80.8291 29.2148C82.2377 31.3966 86.4751 31.414 88.0263 31.2773V15.5217C88.0263 13.2497 87.2987 11.4606 85.9775 10.1137ZM47.7826 31.2773V13.8809C47.7826 13.4649 47.4275 13.1304 47.0026 13.1304H40.0586V8.0453H63.8504L62.7619 13.1304H56.5513C56.1206 13.1304 55.7743 13.4649 55.7743 13.8809V31.2773H47.7826Z" fill="#9AC5CD"/>
<path fill-rule="evenodd" clip-rule="evenodd" d="M179.006 7.67993V30.756H173.919V12.0085H168.165C167.364 12.0085 166.589 12.6471 166.444 13.4244L164.28 25.8062C163.765 28.5397 161.325 30.8311 158.582 31.3599L157.574 27.1498C158.375 27.1498 159.152 26.5141 159.295 25.7339L161.459 13.3522C162.053 10.2314 165.157 7.67993 168.351 7.67993H179.006ZM248.886 8.88199C249.322 8.22606 250.336 7.67993 251.139 7.67993H255.303V30.756H250.219V14.1641L239.198 29.554C238.758 30.2157 237.748 30.756 236.947 30.756H232.777V7.67993H237.867V24.2776L248.886 8.88199ZM198.743 8.88199C199.188 8.22606 200.196 7.67993 200.999 7.67993H205.16V30.756H200.076V14.1641L189.058 29.554C188.621 30.2157 187.605 30.756 186.804 30.756H182.64V7.67993H187.727V24.2776L198.743 8.88199ZM227.803 19.2209C229.286 18.0304 230.238 16.2128 230.238 14.1699C230.238 10.5868 227.311 7.67993 223.692 7.67993H214.249C210.632 7.67993 207.705 10.5868 207.705 14.1699H213.157V13.4533C213.157 12.6587 213.809 12.0085 214.612 12.0085H223.334C224.129 12.0085 224.784 12.6587 224.784 13.4533V15.4355C224.784 16.2302 224.129 16.8745 223.334 16.8745H214.19L213.098 20.8419H223.334C224.129 20.8419 224.784 21.4892 224.784 22.2867V24.9884C224.784 25.786 224.129 26.4332 223.334 26.4332H214.612C213.809 26.4332 213.157 25.786 213.157 24.9884L213.098 24.266H207.705C207.705 27.8491 210.632 30.756 214.249 30.756H223.692C227.311 30.756 230.238 27.8491 230.238 24.266C230.238 22.2289 229.286 20.4114 227.803 19.2209ZM285.098 30.756H290.188V13.4475C290.188 12.6587 290.84 12.0085 291.641 12.0085H299.267L300.356 7.67993H290.913C287.713 7.67993 285.098 10.2748 285.098 13.4475V30.756ZM264.024 30.756V21.7435C264.024 21.3476 264.351 21.0211 264.747 21.0211H275.649C276.051 21.0211 276.377 21.3476 276.377 21.7435V30.756H281.464V7.67993H276.377V15.9759C276.377 16.3717 276.051 16.6925 275.649 16.6925H264.747C264.351 16.6925 264.024 16.3717 264.024 15.9759V7.67993H258.935V30.756H264.024Z" fill="#9AC5CD"/>
<path fill-rule="evenodd" clip-rule="evenodd" d="M14.1488 17.5969C14.1488 19.8923 12.1345 21.7597 9.64817 21.7597C7.16185 21.7597 5.14453 19.8923 5.14453 17.5969C5.14453 15.3016 7.16185 13.4397 9.64817 13.4397C12.1345 13.4397 14.1488 15.3016 14.1488 17.5969Z" fill="#9AC5CD"/>
<path fill-rule="evenodd" clip-rule="evenodd" d="M25.0824 17.5969C25.0824 19.8923 23.0644 21.7597 20.5803 21.7597C18.0931 21.7597 16.0781 19.8923 16.0781 17.5969C16.0781 15.3016 18.0931 13.4397 20.5803 13.4397C23.0644 13.4397 25.0824 15.3016 25.0824 17.5969Z" fill="#9AC5CD"/>
<path fill-rule="evenodd" clip-rule="evenodd" d="M9.00427 27.2028C9.00427 29.4982 6.9923 31.36 4.49913 31.36C2.01799 31.36 0 29.4982 0 27.2028C0 24.9019 2.01799 23.04 4.49913 23.04C6.9923 23.04 9.00427 24.9019 9.00427 27.2028Z" fill="#9AC5CD"/>
<path fill-rule="evenodd" clip-rule="evenodd" d="M19.9379 27.2028C19.9379 29.4982 17.9236 31.36 15.4342 31.36C12.9509 31.36 10.9336 29.4982 10.9336 27.2028C10.9336 24.9019 12.9509 23.04 15.4342 23.04C17.9236 23.04 19.9379 24.9019 19.9379 27.2028Z" fill="#9AC5CD"/>
<path fill-rule="evenodd" clip-rule="evenodd" d="M30.8715 27.2026C30.8715 29.4979 28.8571 31.3598 26.3678 31.3598C23.8845 31.3598 21.8672 29.4979 21.8672 27.2026C21.8672 24.9017 23.8845 23.0398 26.3678 23.0398C28.8571 23.0398 30.8715 24.9017 30.8715 27.2026Z" fill="#9AC5CD"/>
<path fill-rule="evenodd" clip-rule="evenodd" d="M9.00427 8.6372C9.00427 10.9381 6.98929 12.8 4.50214 12.8C2.01498 12.8 0 10.9381 0 8.6372C0 6.34184 2.01498 4.47998 4.50214 4.47998C6.98929 4.47998 9.00427 6.34184 9.00427 8.6372Z" fill="#9AC5CD"/>
<path fill-rule="evenodd" clip-rule="evenodd" d="M19.9379 8.6372C19.9379 10.9381 17.9229 12.8 15.4327 12.8C12.9486 12.8 10.9336 10.9381 10.9336 8.6372C10.9336 6.34184 12.9486 4.47998 15.4327 4.47998C17.9229 4.47998 19.9379 6.34184 19.9379 8.6372Z" fill="#9AC5CD"/>
<path fill-rule="evenodd" clip-rule="evenodd" d="M30.8715 8.63696C30.8715 10.9379 28.8565 12.7997 26.3663 12.7997C23.8822 12.7997 21.8672 10.9379 21.8672 8.63696C21.8672 6.34159 23.8822 4.47974 26.3663 4.47974C28.8565 4.47974 30.8715 6.34159 30.8715 8.63696Z" fill="#9AC5CD"/>
</svg>
