<svg width="131" height="130" viewBox="0 0 131 130" fill="none" xmlns="http://www.w3.org/2000/svg">
<path d="M118.94 33.6706H12.9807C9.45179 33.6706 6.59106 36.5422 6.59106 40.0844V103.791C6.59106 107.334 9.45179 110.205 12.9807 110.205H118.94C122.469 110.205 125.33 107.334 125.33 103.791V40.0844C125.33 36.5422 122.469 33.6706 118.94 33.6706Z" stroke="white" stroke-width="2" stroke-miterlimit="10"/>
<path d="M65.738 96.6462C79.537 96.6462 90.7233 85.4337 90.7233 71.6027C90.7233 57.7715 79.537 46.5593 65.738 46.5593C51.939 46.5593 40.7527 57.7715 40.7527 71.6027C40.7527 85.4337 51.939 96.6462 65.738 96.6462Z" stroke="#00B8C1" stroke-width="2" stroke-miterlimit="10"/>
<path d="M21.8542 55.4379C25.0137 55.4379 27.5752 52.8705 27.5752 49.7036C27.5752 46.5367 25.0137 43.9694 21.8542 43.9694C18.6947 43.9694 16.1333 46.5367 16.1333 49.7036C16.1333 52.8705 18.6947 55.4379 21.8542 55.4379Z" stroke="white" stroke-width="2" stroke-miterlimit="10"/>
<path d="M65.8027 88.2378C75.0142 88.2378 82.4818 80.7529 82.4818 71.52C82.4818 62.2868 75.0142 54.8019 65.8027 54.8019C56.5911 54.8019 49.1235 62.2868 49.1235 71.52C49.1235 80.7529 56.5911 88.2378 65.8027 88.2378Z" stroke="#00B8C1" stroke-width="2" stroke-miterlimit="10"/>
<path d="M88.1004 22.2022H43.8008V33.654H88.1004V22.2022Z" stroke="white" stroke-width="2" stroke-miterlimit="10"/>
<path d="M14.0991 24.7107H28.4932" stroke="#00B8C1" stroke-width="2" stroke-miterlimit="10"/>
</svg>
