<svg width="151" height="151" viewBox="0 0 151 151" fill="none" xmlns="http://www.w3.org/2000/svg">
<g clip-path="url(#clip0_74_155)">
<path d="M95.0099 78.5481V50.9391L81.6707 37.9102H37V112.982H105.867" stroke="white" stroke-width="2" stroke-miterlimit="10"/>
<path d="M51.6099 51.7451C54.0598 51.7451 56.0459 49.7591 56.0459 47.3091C56.0459 44.8591 54.0598 42.873 51.6099 42.873C49.1599 42.873 47.1738 44.8591 47.1738 47.3091C47.1738 49.7591 49.1599 51.7451 51.6099 51.7451Z" stroke="white" stroke-width="2" stroke-miterlimit="10"/>
<path d="M51.093 52.4277H52.1275C55.8034 52.4277 58.7762 55.3653 58.7762 58.9755V64.7122H44.4443V58.9755C44.4443 55.3554 47.4272 52.4277 51.093 52.4277Z" stroke="white" stroke-width="2" stroke-miterlimit="10"/>
<path d="M81.0518 37.2896V50.9389H95.3216" stroke="white" stroke-width="2" stroke-miterlimit="10"/>
<path d="M43.2051 71.4136H66.1609" stroke="white" stroke-width="2" stroke-miterlimit="10"/>
<path d="M43.2051 78.2368H66.1609" stroke="white" stroke-width="2" stroke-miterlimit="10"/>
<path d="M43.2051 84.4419H58.7157" stroke="white" stroke-width="2" stroke-miterlimit="10"/>
<path d="M109.546 102.733H72.9325C71.9467 102.733 71.1475 103.53 71.1475 104.513C71.1475 105.496 71.9467 106.293 72.9325 106.293H109.546C110.532 106.293 111.331 105.496 111.331 104.513C111.331 103.53 110.532 102.733 109.546 102.733Z" stroke="white" stroke-width="2" stroke-miterlimit="10"/>
<path d="M79.1867 106.157V110.044C79.1867 111.67 77.8011 112.982 76.0846 112.982C74.368 112.982 72.9824 111.67 72.9824 110.044V106.157" stroke="white" stroke-width="2" stroke-miterlimit="10"/>
<path d="M108.349 106.157V110.044C108.349 111.67 106.963 112.982 105.247 112.982C103.53 112.982 102.145 111.67 102.145 110.044V106.157" stroke="white" stroke-width="2" stroke-miterlimit="10"/>
<path d="M108.754 102.734V93.5576L107.179 91.9832C106.638 91.4416 106.206 90.7898 105.926 90.0778L102.275 80.9119C102.085 80.4205 101.603 80.0996 101.082 80.0996H80.6141C80.0826 80.0996 79.6112 80.4205 79.4207 80.9119L75.7704 90.0778C75.4896 90.7898 75.0584 91.4416 74.5168 91.9832L72.9424 93.5576V102.734" stroke="white" stroke-width="2" stroke-miterlimit="10"/>
<path d="M72.75 90.4891L75.1167 91.1309H106.375L108.581 89.9375" stroke="white" stroke-width="2" stroke-miterlimit="10"/>
<path d="M80.423 100.056C81.7024 100.056 82.7395 99.0188 82.7395 97.7394C82.7395 96.46 81.7024 95.4229 80.423 95.4229C79.1436 95.4229 78.1064 96.46 78.1064 97.7394C78.1064 99.0188 79.1436 100.056 80.423 100.056Z" stroke="white" stroke-width="2" stroke-miterlimit="10"/>
<path d="M100.56 100.056C101.839 100.056 102.876 99.0188 102.876 97.7394C102.876 96.46 101.839 95.4229 100.56 95.4229C99.2803 95.4229 98.2432 96.46 98.2432 97.7394C98.2432 99.0188 99.2803 100.056 100.56 100.056Z" stroke="white" stroke-width="2" stroke-miterlimit="10"/>
<path d="M71.8781 90.84H70.4441C69.7922 90.84 69.2607 90.3085 69.2607 89.6567V87.8415C69.2607 87.1897 69.7922 86.6582 70.4441 86.6582H71.8781C72.53 86.6582 73.0615 87.1897 73.0615 87.8415V89.6567C73.0615 89.9675 72.9411 90.2483 72.7506 90.4489C72.54 90.6796 72.2291 90.83 71.8781 90.83V90.84Z" stroke="white" stroke-width="2" stroke-miterlimit="10"/>
<path d="M111.169 90.84H109.735C109.083 90.84 108.552 90.3085 108.552 89.6567V87.8415C108.552 87.1897 109.083 86.6582 109.735 86.6582H111.169C111.821 86.6582 112.352 87.1897 112.352 87.8415V89.6567C112.352 89.9675 112.232 90.2483 112.042 90.4489C111.831 90.6796 111.52 90.83 111.169 90.83V90.84Z" stroke="white" stroke-width="2" stroke-miterlimit="10"/>
<path d="M74.9141 149.828C115.736 149.828 148.828 116.736 148.828 75.9141C148.828 35.0925 115.736 2 74.9141 2C34.0925 2 1 35.0925 1 75.9141C1 116.736 34.0925 149.828 74.9141 149.828Z" stroke="white" stroke-width="2" stroke-miterlimit="10" stroke-dasharray="4 4"/>
<path d="M74.9141 2C115.739 2 148.828 35.0891 148.828 75.9141C148.828 89.2501 145.299 101.759 139.114 112.56" stroke="#00B8C1" stroke-width="3" stroke-miterlimit="10"/>
</g>
<defs>
<clipPath id="clip0_74_155">
<rect width="151" height="151" fill="white"/>
</clipPath>
</defs>
</svg>
