<svg width="151" height="152" viewBox="0 0 151 152" fill="none" xmlns="http://www.w3.org/2000/svg">
<g clip-path="url(#clip0_74_135)">
<path d="M103.103 89.2139H37.5849C35.8207 89.2139 34.3906 90.64 34.3906 92.3991C34.3906 94.1583 35.8207 95.5844 37.5849 95.5844H103.103C104.867 95.5844 106.297 94.1583 106.297 92.3991C106.297 90.64 104.867 89.2139 103.103 89.2139Z" stroke="white" stroke-width="2" stroke-miterlimit="10"/>
<path d="M48.8013 95.4775V102.602C48.8013 105.581 46.3967 107.985 43.4178 107.985C40.4388 107.985 38.0342 105.581 38.0342 102.602V95.4775" stroke="white" stroke-width="2" stroke-miterlimit="10"/>
<path d="M100.717 95.0815V102.206C100.717 105.185 98.3127 107.589 95.3338 107.589C92.3549 107.589 89.9502 105.185 89.9502 102.206V95.0815" stroke="white" stroke-width="2" stroke-miterlimit="10"/>
<path d="M73.4761 48.7109H51.3316C50.3805 48.7109 49.5371 49.2852 49.1961 50.1645L42.6641 66.5665C42.1616 67.8406 41.39 69.007 40.4209 69.9761L37.6035 72.7935V89.2134" stroke="white" stroke-width="2" stroke-miterlimit="10"/>
<path d="M101.685 89.2142V72.7943L98.868 69.9769C97.899 69.0079 97.1273 67.8414 96.6249 66.5673L94.292 60.6274" stroke="white" stroke-width="2" stroke-miterlimit="10"/>
<path d="M37.2617 67.2835L41.4968 68.432H97.4322L101.38 66.3145" stroke="white" stroke-width="2" stroke-miterlimit="10"/>
<path d="M50.9901 84.4225C53.2795 84.4225 55.1354 82.5666 55.1354 80.2772C55.1354 77.9878 53.2795 76.1318 50.9901 76.1318C48.7007 76.1318 46.8447 77.9878 46.8447 80.2772C46.8447 82.5666 48.7007 84.4225 50.9901 84.4225Z" stroke="white" stroke-width="2" stroke-miterlimit="10"/>
<path d="M87.0243 84.4225C89.3137 84.4225 91.1696 82.5666 91.1696 80.2772C91.1696 77.9878 89.3137 76.1318 87.0243 76.1318C84.7348 76.1318 82.8789 77.9878 82.8789 80.2772C82.8789 82.5666 84.7348 84.4225 87.0243 84.4225Z" stroke="white" stroke-width="2" stroke-miterlimit="10"/>
<path d="M35.7009 67.9309H33.1527C31.9863 67.9309 31.0352 66.9798 31.0352 65.8134V62.5653C31.0352 61.3989 31.9863 60.4478 33.1527 60.4478H35.7189C36.8853 60.4478 37.8364 61.3989 37.8364 62.5653V65.8134C37.8364 66.3697 37.6211 66.8722 37.2801 67.2311C36.9033 67.6438 36.347 67.913 35.7189 67.913L35.7009 67.9309Z" stroke="white" stroke-width="2" stroke-miterlimit="10"/>
<path d="M106.011 67.9309H103.445C102.278 67.9309 101.327 66.9798 101.327 65.8134V62.5653C101.327 61.3989 102.278 60.4478 103.445 60.4478H106.011C107.177 60.4478 108.128 61.3989 108.128 62.5653V65.8134C108.128 66.3697 107.913 66.8722 107.572 67.2311C107.195 67.6438 106.639 67.913 106.011 67.913V67.9309Z" stroke="white" stroke-width="2" stroke-miterlimit="10"/>
<path d="M86.5239 62.9589C93.7588 62.9589 99.6239 57.0938 99.6239 49.8588C99.6239 42.6239 93.7588 36.7588 86.5239 36.7588C79.2889 36.7588 73.4238 42.6239 73.4238 49.8588C73.4238 57.0938 79.2889 62.9589 86.5239 62.9589Z" stroke="white" stroke-width="2" stroke-miterlimit="10"/>
<path d="M97.8828 42.4653L117.856 31.752" stroke="white" stroke-width="2" stroke-miterlimit="10"/>
<path d="M75 150C115.869 150 149 116.869 149 76C149 35.1309 115.869 2 75 2C34.1309 2 1 35.1309 1 76C1 116.869 34.1309 150 75 150Z" stroke="white" stroke-width="2" stroke-miterlimit="10" stroke-dasharray="4 4"/>
<path d="M74.9996 2C115.872 2 149 35.1275 149 76C149 116.872 115.872 150 74.9996 150C47.5344 150 23.5557 135.031 10.79 112.809" stroke="#00B8C1" stroke-width="3" stroke-miterlimit="10"/>
</g>
<defs>
<clipPath id="clip0_74_135">
<rect width="151" height="152" fill="white"/>
</clipPath>
</defs>
</svg>
