<svg width="131" height="130" viewBox="0 0 131 130" fill="none" xmlns="http://www.w3.org/2000/svg">
<path d="M3.66357 53.8881H58.4619" stroke="#00B8C1" stroke-width="2" stroke-miterlimit="10"/>
<path d="M49.7289 45.2123L58.4629 53.8881L49.3198 62.0145" stroke="#00B8C1" stroke-width="2" stroke-miterlimit="10"/>
<path d="M54.3842 81.1258H94.4641V32.8108C94.4641 29.8399 92.0503 27.4315 89.0728 27.4315H32.3915C29.4139 27.4315 27.0002 29.8399 27.0002 32.8108V43.8121H15.0845" stroke="white" stroke-width="2" stroke-miterlimit="10"/>
<path d="M15.0845 64.7451H27.0002V81.1258H37.0675" stroke="white" stroke-width="2" stroke-miterlimit="10"/>
<path d="M117.92 81.0813H125.124V55.7843C125.124 45.521 116.753 37.2065 106.421 37.2065H94.6035" stroke="white" stroke-width="2" stroke-miterlimit="10"/>
<path d="M94.6035 81.0801H100.376" stroke="white" stroke-width="2" stroke-miterlimit="10"/>
<path d="M45.7883 89.2903C50.5534 89.2903 54.4162 85.4532 54.4162 80.7199C54.4162 75.9867 50.5534 72.1496 45.7883 72.1496C41.0232 72.1496 37.1602 75.9867 37.1602 80.7199C37.1602 85.4532 41.0232 89.2903 45.7883 89.2903Z" stroke="white" stroke-width="2" stroke-miterlimit="10"/>
<path d="M109.18 89.2903C113.945 89.2903 117.808 85.4532 117.808 80.7199C117.808 75.9867 113.945 72.1496 109.18 72.1496C104.415 72.1496 100.552 75.9867 100.552 80.7199C100.552 85.4532 104.415 89.2903 109.18 89.2903Z" stroke="white" stroke-width="2" stroke-miterlimit="10"/>
<path d="M8.83105 101.853H125.088" stroke="#00B8C1" stroke-width="2" stroke-dasharray="4 4"/>
</svg>
