<svg width="131" height="130" viewBox="0 0 131 130" fill="none" xmlns="http://www.w3.org/2000/svg">
<path d="M79.7986 53.3116V41.4302C79.7986 39.7219 79.0773 38.0901 77.8066 36.9244L60.8868 21.4021C59.7254 20.3367 58.1959 19.7441 56.6073 19.7441H10.879C7.41531 19.7441 4.60742 22.5038 4.60742 25.9081V103.48C4.60742 106.884 7.41531 109.644 10.879 109.644H79.7986" stroke="white" stroke-width="2" stroke-miterlimit="10"/>
<path d="M59.0815 19.7441V39.2215H79.8007" stroke="white" stroke-width="2" stroke-miterlimit="10"/>
<path d="M97.0495 40.5751C97.0495 40.5751 96.7431 40.5475 96.0957 40.5751V72.0982H127.174C127.259 71.1588 127.315 70.2195 127.315 69.2802C127.315 53.3666 114.169 40.4646 97.9537 40.4646L97.0495 40.5751Z" stroke="#00B8C1" stroke-width="2" stroke-miterlimit="10"/>
<path d="M82.6677 83.9519V52.4012C67.3254 53.3406 55.1924 65.8283 55.1924 81.1062C55.1924 96.3843 68.3389 109.922 84.5538 109.922C99.7835 109.922 112.311 98.5116 113.775 83.9242H86.2423L82.6677 83.9519Z" stroke="#00B8C1" stroke-width="2" stroke-miterlimit="10"/>
<path d="M14.8281 47.7031H45.9912" stroke="white" stroke-width="2" stroke-miterlimit="10"/>
<path d="M14.8281 58.4508H45.9912" stroke="white" stroke-width="2" stroke-miterlimit="10"/>
<path d="M14.8281 68.0399H45.9912" stroke="white" stroke-width="2" stroke-miterlimit="10"/>
</svg>
