<svg width="131" height="130" viewBox="0 0 131 130" fill="none" xmlns="http://www.w3.org/2000/svg">
<path d="M89.8416 84.6735V108.309C89.8416 111.514 87.2458 114.112 84.0439 114.112H8.24697C5.04496 114.112 2.44922 111.514 2.44922 108.309V62.1849C2.44922 58.9802 5.04496 56.3821 8.24697 56.3821H61.5686" stroke="white" stroke-width="2" stroke-miterlimit="10"/>
<path d="M21.731 56.8869V43.8361C21.731 30.368 32.6681 19.4373 46.1438 19.4373C52.6992 19.4373 58.6632 22.0266 63.045 26.2321" stroke="white" stroke-width="2" stroke-miterlimit="10"/>
<path d="M46.1444 89.5768C51.5318 89.5768 55.8991 85.2121 55.8991 79.8278C55.8991 74.4435 51.5318 70.0788 46.1444 70.0788C40.7569 70.0788 36.3896 74.4435 36.3896 79.8278C36.3896 85.2121 40.7569 89.5768 46.1444 89.5768Z" stroke="white" stroke-width="2" stroke-miterlimit="10"/>
<path d="M46.145 85.2489V104" stroke="white" stroke-width="2" stroke-miterlimit="10"/>
<path d="M54.4899 34.6096L52.8032 47.73L96.4473 91.3488L127.294 60.5376L83.6323 16.9014L70.5217 18.5871L54.4899 34.6096Z" stroke="#00B8C1" stroke-width="2" stroke-miterlimit="10"/>
<path d="M78.1384 64.7689L92.1491 50.7459C96.238 46.6533 96.238 40.0129 92.1491 35.9203C88.0601 31.8277 81.4255 31.8277 77.3364 35.9203L67.3965 45.8689L94.8649 73.3614" stroke="#00B8C1" stroke-width="2" stroke-miterlimit="10"/>
<path d="M83.2246 69.5312L101.209 51.5313" stroke="#00B8C1" stroke-width="2" stroke-miterlimit="10"/>
</svg>
