<svg width="152" height="152" viewBox="0 0 152 152" fill="none" xmlns="http://www.w3.org/2000/svg">
<g clip-path="url(#clip0_74_217)">
<path d="M30.1826 100.76H129.721" stroke="white" stroke-width="2"/>
<path d="M76 150C116.869 150 150 116.869 150 76C150 35.1309 116.869 2 76 2C35.1309 2 2 35.1309 2 76C2 116.869 35.1309 150 76 150Z" stroke="#00B8C1" stroke-width="3" stroke-miterlimit="10"/>
<path d="M43.7637 97.3096C49.0427 97.3096 53.3223 93.03 53.3223 87.751C53.3223 82.4719 49.0427 78.1924 43.7637 78.1924C38.4846 78.1924 34.2051 82.4719 34.2051 87.751C34.2051 93.03 38.4846 97.3096 43.7637 97.3096Z" stroke="white" stroke-width="2" stroke-miterlimit="10"/>
<path d="M43.7637 92.5303C46.4032 92.5303 48.543 90.3905 48.543 87.751C48.543 85.1114 46.4032 82.9717 43.7637 82.9717C41.1241 82.9717 38.9844 85.1114 38.9844 87.751C38.9844 90.3905 41.1241 92.5303 43.7637 92.5303Z" stroke="white" stroke-width="2" stroke-miterlimit="10"/>
<path d="M114.498 92.7534C117.138 92.7534 119.277 90.6137 119.277 87.9741C119.277 85.3346 117.138 83.1948 114.498 83.1948C111.859 83.1948 109.719 85.3346 109.719 87.9741C109.719 90.6137 111.859 92.7534 114.498 92.7534Z" stroke="white" stroke-width="2" stroke-miterlimit="10"/>
<path d="M114.498 97.3096C119.777 97.3096 124.057 93.03 124.057 87.751C124.057 82.4719 119.777 78.1924 114.498 78.1924C109.219 78.1924 104.939 82.4719 104.939 87.751C104.939 93.03 109.219 97.3096 114.498 97.3096Z" stroke="white" stroke-width="2" stroke-miterlimit="10"/>
<path d="M123.73 87.8385H131.806C133.442 87.8385 134.913 86.8428 135.52 85.3242L137.043 81.5166C137.809 79.6022 136.994 77.4194 135.161 76.4751L132.788 75.2525C132.038 74.8657 131.494 74.1691 131.302 73.3468C131.021 72.1454 130.006 71.2561 128.778 71.1349L99.7976 68.2739C98.5652 68.1522 97.4622 67.4723 96.6857 66.5076C93.6654 62.7556 84.6697 53.6215 68.9138 54.0121C51.7733 54.4371 29.968 70.1644 24.7289 74.134C23.9674 74.711 23.4612 75.5526 23.2825 76.4911L23.0255 77.8403C22.8682 78.6663 22.4484 79.4183 21.943 80.0904C21.3174 80.9221 20.4851 82.2619 19.9654 84.0253C19.3565 86.0915 21.1921 87.8408 23.3461 87.8408H33.6861" stroke="white" stroke-width="2" stroke-miterlimit="10"/>
<path d="M52.7676 87.8384H104.7" stroke="white" stroke-width="2" stroke-miterlimit="10"/>
<path d="M30.054 70.8397L23.3555 64.8291" stroke="white" stroke-width="2" stroke-miterlimit="10"/>
<path d="M17 64.8291H30.3995" stroke="white" stroke-width="2" stroke-miterlimit="10"/>
<path d="M98.7265 68.1065H49.6245C48.0402 68.1065 46.5532 67.2194 45.907 65.774C45.2607 64.3287 45.3742 62.207 48.522 59.7402" stroke="white" stroke-width="2" stroke-miterlimit="10"/>
<path d="M60.334 55.4507L64.8993 68.2062" stroke="white" stroke-width="2" stroke-miterlimit="10"/>
</g>
<defs>
<clipPath id="clip0_74_217">
<rect width="152" height="152" fill="white"/>
</clipPath>
</defs>
</svg>
